<?xml version="1.0" encoding="UTF-8" standalone="no"?>
<!DOCTYPE svg PUBLIC "-//W3C//DTD SVG 1.1//EN"
 "http://www.w3.org/Graphics/SVG/1.1/DTD/svg11.dtd">
<!-- Generated by graphviz version 2.38.0 (20140413.2041)
 -->
<!-- Title: perl6&#45;type&#45;graph Pages: 1 -->
<svg width="355pt" height="166pt"
 viewBox="0.00 0.00 710.44 332.00" xmlns="http://www.w3.org/2000/svg" xmlns:xlink="http://www.w3.org/1999/xlink">
<g id="graph0" class="graph" transform="scale(1 1) rotate(0) translate(4 328)">
<title>perl6&#45;type&#45;graph</title>
<polygon fill="white" stroke="none" points="-4,4 -4,-328 706.44,-328 706.44,4 -4,4"/>
<!-- Int -->
<g id="node1" class="node"><title>Int</title>
<g id="a_node1"><a xlink:href="/type/Int" xlink:title="Int">
<ellipse fill="none" stroke="#000000" cx="418.393" cy="-90" rx="27" ry="18"/>
<text text-anchor="middle" x="418.393" y="-86.3" font-family="FreeSans" font-size="14.00" fill="#000000">Int</text>
</a>
</g>
</g>
<!-- Cool -->
<g id="node4" class="node"><title>Cool</title>
<g id="a_node4"><a xlink:href="/type/Cool" xlink:title="Cool">
<ellipse fill="none" stroke="#000000" cx="530.393" cy="-162" rx="30.5947" ry="18"/>
<text text-anchor="middle" x="530.393" y="-158.3" font-family="FreeSans" font-size="14.00" fill="#000000">Cool</text>
</a>
</g>
</g>
<!-- Int&#45;&gt;Cool -->
<g id="edge1" class="edge"><title>Int&#45;&gt;Cool</title>
<path fill="none" stroke="#000000" d="M437.393,-102.875C455.007,-113.884 481.461,-130.418 501.658,-143.04"/>
<polygon fill="#000000" stroke="#000000" points="499.829,-146.024 510.164,-148.356 503.539,-140.088 499.829,-146.024"/>
</g>
<!-- Real -->
<g id="node6" class="node"><title>Real</title>
<g id="a_node6"><a xlink:href="/type/Real" xlink:title="Real">
<ellipse fill="none" stroke="#6666ff" cx="418.393" cy="-162" rx="29.795" ry="18"/>
<text text-anchor="middle" x="418.393" y="-158.3" font-family="FreeSans" font-size="14.00" fill="#6666ff">Real</text>
</a>
</g>
</g>
<!-- Int&#45;&gt;Real -->
<g id="edge13" class="edge"><title>Int&#45;&gt;Real</title>
<path fill="none" stroke="#6666ff" d="M418.393,-108.303C418.393,-116.017 418.393,-125.288 418.393,-133.888"/>
<polygon fill="#6666ff" stroke="#6666ff" points="414.893,-133.896 418.393,-143.896 421.893,-133.896 414.893,-133.896"/>
</g>
<!-- Mu -->
<g id="node2" class="node"><title>Mu</title>
<g id="a_node2"><a xlink:href="/type/Mu" xlink:title="Mu">
<ellipse fill="none" stroke="#000000" cx="530.393" cy="-306" rx="27" ry="18"/>
<text text-anchor="middle" x="530.393" y="-302.3" font-family="FreeSans" font-size="14.00" fill="#000000">Mu</text>
</a>
</g>
</g>
<!-- Any -->
<g id="node3" class="node"><title>Any</title>
<g id="a_node3"><a xlink:href="/type/Any" xlink:title="Any">
<ellipse fill="none" stroke="#000000" cx="530.393" cy="-234" rx="28.6953" ry="18"/>
<text text-anchor="middle" x="530.393" y="-230.3" font-family="FreeSans" font-size="14.00" fill="#000000">Any</text>
</a>
</g>
</g>
<!-- Any&#45;&gt;Mu -->
<g id="edge2" class="edge"><title>Any&#45;&gt;Mu</title>
<path fill="none" stroke="#000000" d="M530.393,-252.303C530.393,-260.017 530.393,-269.288 530.393,-277.888"/>
<polygon fill="#000000" stroke="#000000" points="526.893,-277.896 530.393,-287.896 533.893,-277.896 526.893,-277.896"/>
</g>
<!-- Cool&#45;&gt;Any -->
<g id="edge3" class="edge"><title>Cool&#45;&gt;Any</title>
<path fill="none" stroke="#000000" d="M530.393,-180.303C530.393,-188.017 530.393,-197.288 530.393,-205.888"/>
<polygon fill="#000000" stroke="#000000" points="526.893,-205.896 530.393,-215.896 533.893,-205.896 526.893,-205.896"/>
</g>
<!-- Numeric -->
<g id="node5" class="node"><title>Numeric</title>
<g id="a_node5"><a xlink:href="/type/Numeric" xlink:title="Numeric">
<ellipse fill="none" stroke="#6666ff" cx="418.393" cy="-234" rx="48.1917" ry="18"/>
<text text-anchor="middle" x="418.393" y="-230.3" font-family="FreeSans" font-size="14.00" fill="#6666ff">Numeric</text>
</a>
</g>
</g>
<!-- Real&#45;&gt;Numeric -->
<g id="edge14" class="edge"><title>Real&#45;&gt;Numeric</title>
<path fill="none" stroke="#6666ff" d="M418.393,-180.303C418.393,-188.017 418.393,-197.288 418.393,-205.888"/>
<polygon fill="#6666ff" stroke="#6666ff" points="414.893,-205.896 418.393,-215.896 421.893,-205.896 414.893,-205.896"/>
</g>
<!-- PromiseStatus -->
<g id="node7" class="node"><title>PromiseStatus</title>
<g id="a_node7"><a xlink:href="/type/PromiseStatus" xlink:title="PromiseStatus">
<ellipse fill="none" stroke="#33bb33" cx="75.3933" cy="-18" rx="75.2868" ry="18"/>
<text text-anchor="middle" x="75.3933" y="-14.3" font-family="FreeSans" font-size="14.00" fill="#33bb33">PromiseStatus</text>
</a>
</g>
</g>
<!-- PromiseStatus&#45;&gt;Int -->
<g id="edge4" class="edge"><title>PromiseStatus&#45;&gt;Int</title>
<path fill="none" stroke="#000000" d="M130.883,-30.3245C201.892,-44.8161 322.852,-69.5017 382.693,-81.7143"/>
<polygon fill="#000000" stroke="#000000" points="382.289,-85.2039 392.787,-83.7743 383.689,-78.3453 382.289,-85.2039"/>
</g>
<!-- atomicint -->
<g id="node8" class="node"><title>atomicint</title>
<g id="a_node8"><a xlink:href="/type/atomicint" xlink:title="atomicint">
<ellipse fill="none" stroke="#000000" cx="221.393" cy="-18" rx="52.7911" ry="18"/>
<text text-anchor="middle" x="221.393" y="-14.3" font-family="FreeSans" font-size="14.00" fill="#000000">atomicint</text>
</a>
</g>
</g>
<!-- atomicint&#45;&gt;Int -->
<g id="edge5" class="edge"><title>atomicint&#45;&gt;Int</title>
<path fill="none" stroke="#000000" d="M256.613,-31.5146C293.233,-44.5269 350.091,-64.73 385.732,-77.3946"/>
<polygon fill="#000000" stroke="#000000" points="384.594,-80.7043 395.188,-80.7546 386.937,-74.1083 384.594,-80.7043"/>
</g>
<!-- Bool -->
<g id="node9" class="node"><title>Bool</title>
<g id="a_node9"><a xlink:href="/type/Bool" xlink:title="Bool">
<ellipse fill="none" stroke="#33bb33" cx="322.393" cy="-18" rx="30.5947" ry="18"/>
<text text-anchor="middle" x="322.393" y="-14.3" font-family="FreeSans" font-size="14.00" fill="#33bb33">Bool</text>
</a>
</g>
</g>
<!-- Bool&#45;&gt;Int -->
<g id="edge6" class="edge"><title>Bool&#45;&gt;Int</title>
<path fill="none" stroke="#000000" d="M340.903,-32.4967C355.658,-43.2552 376.481,-58.4393 392.827,-70.3581"/>
<polygon fill="#000000" stroke="#000000" points="390.769,-73.1887 400.911,-76.2525 394.893,-67.5327 390.769,-73.1887"/>
</g>
<!-- Stringy -->
<g id="node10" class="node"><title>Stringy</title>
<g id="a_node10"><a xlink:href="/type/Stringy" xlink:title="Stringy">
<ellipse fill="none" stroke="#6666ff" cx="656.393" cy="-162" rx="43.5923" ry="18"/>
<text text-anchor="middle" x="656.393" y="-158.3" font-family="FreeSans" font-size="14.00" fill="#6666ff">Stringy</text>
</a>
</g>
</g>
<!-- Str -->
<g id="node11" class="node"><title>Str</title>
<g id="a_node11"><a xlink:href="/type/Str" xlink:title="Str">
<ellipse fill="none" stroke="#000000" cx="656.393" cy="-90" rx="27" ry="18"/>
<text text-anchor="middle" x="656.393" y="-86.3" font-family="FreeSans" font-size="14.00" fill="#000000">Str</text>
</a>
</g>
</g>
<!-- Str&#45;&gt;Cool -->
<g id="edge7" class="edge"><title>Str&#45;&gt;Cool</title>
<path fill="none" stroke="#000000" d="M636.149,-102.247C615.76,-113.574 584.059,-131.186 560.678,-144.175"/>
<polygon fill="#000000" stroke="#000000" points="558.894,-141.162 551.852,-149.078 562.294,-147.281 558.894,-141.162"/>
</g>
<!-- Str&#45;&gt;Stringy -->
<g id="edge15" class="edge"><title>Str&#45;&gt;Stringy</title>
<path fill="none" stroke="#6666ff" d="M656.393,-108.303C656.393,-116.017 656.393,-125.288 656.393,-133.888"/>
<polygon fill="#6666ff" stroke="#6666ff" points="652.893,-133.896 656.393,-143.896 659.893,-133.896 652.893,-133.896"/>
</g>
<!-- IntStr -->
<g id="node12" class="node"><title>IntStr</title>
<g id="a_node12"><a xlink:href="/type/IntStr" xlink:title="IntStr">
<ellipse fill="none" stroke="#000000" cx="665.393" cy="-18" rx="37.0935" ry="18"/>
<text text-anchor="middle" x="665.393" y="-14.3" font-family="FreeSans" font-size="14.00" fill="#000000">IntStr</text>
</a>
</g>
</g>
<!-- IntStr&#45;&gt;Int -->
<g id="edge8" class="edge"><title>IntStr&#45;&gt;Int</title>
<path fill="none" stroke="#000000" d="M636.784,-29.573C627.429,-33.0301 619.393,-36 619.393,-36 619.393,-36 510.216,-64.7879 452.789,-79.9304"/>
<polygon fill="#000000" stroke="#000000" points="451.817,-76.5671 443.04,-82.5012 453.602,-83.3357 451.817,-76.5671"/>
</g>
<!-- IntStr&#45;&gt;Str -->
<g id="edge9" class="edge"><title>IntStr&#45;&gt;Str</title>
<path fill="none" stroke="#000000" d="M663.169,-36.3034C662.177,-44.0173 660.985,-53.2875 659.879,-61.8876"/>
<polygon fill="#000000" stroke="#000000" points="656.396,-61.531 658.592,-71.8957 663.339,-62.4237 656.396,-61.531"/>
</g>
<!-- Signal -->
<g id="node13" class="node"><title>Signal</title>
<g id="a_node13"><a xlink:href="/type/Signal" xlink:title="Signal">
<ellipse fill="none" stroke="#33bb33" cx="409.393" cy="-18" rx="38.1938" ry="18"/>
<text text-anchor="middle" x="409.393" y="-14.3" font-family="FreeSans" font-size="14.00" fill="#33bb33">Signal</text>
</a>
</g>
</g>
<!-- Signal&#45;&gt;Int -->
<g id="edge10" class="edge"><title>Signal&#45;&gt;Int</title>
<path fill="none" stroke="#000000" d="M411.618,-36.3034C412.61,-44.0173 413.802,-53.2875 414.907,-61.8876"/>
<polygon fill="#000000" stroke="#000000" points="411.447,-62.4237 416.194,-71.8957 418.39,-61.531 411.447,-62.4237"/>
</g>
<!-- Order -->
<g id="node14" class="node"><title>Order</title>
<g id="a_node14"><a xlink:href="/type/Order" xlink:title="Order">
<ellipse fill="none" stroke="#33bb33" cx="502.393" cy="-18" rx="36.2938" ry="18"/>
<text text-anchor="middle" x="502.393" y="-14.3" font-family="FreeSans" font-size="14.00" fill="#33bb33">Order</text>
</a>
</g>
</g>
<!-- Order&#45;&gt;Int -->
<g id="edge11" class="edge"><title>Order&#45;&gt;Int</title>
<path fill="none" stroke="#000000" d="M484.579,-33.8452C472.375,-44.015 456.039,-57.6288 442.65,-68.7862"/>
<polygon fill="#000000" stroke="#000000" points="440.199,-66.2725 434.758,-75.3631 444.68,-71.65 440.199,-66.2725"/>
</g>
<!-- int -->
<g id="node15" class="node"><title>int</title>
<g id="a_node15"><a xlink:href="/type/int" xlink:title="int">
<ellipse fill="none" stroke="#000000" cx="583.393" cy="-18" rx="27" ry="18"/>
<text text-anchor="middle" x="583.393" y="-14.3" font-family="FreeSans" font-size="14.00" fill="#000000">int</text>
</a>
</g>
</g>
<!-- int&#45;&gt;Int -->
<g id="edge12" class="edge"><title>int&#45;&gt;Int</title>
<path fill="none" stroke="#000000" d="M562.036,-29.0854C554.284,-32.7461 547.393,-36 547.393,-36 547.393,-36 488.769,-60.0862 450.561,-75.7839"/>
<polygon fill="#000000" stroke="#000000" points="448.783,-72.7303 440.863,-79.7681 451.443,-79.2052 448.783,-72.7303"/>
</g>
</g>
</svg>
